<?xml version="1.0" standalone="no"?>
<!DOCTYPE svg PUBLIC "-//W3C//DTD SVG 20010904//EN"
 "http://www.w3.org/TR/2001/REC-SVG-20010904/DTD/svg10.dtd">
<svg version="1.0" xmlns="http://www.w3.org/2000/svg"
 width="500.000000pt" height="500.000000pt" viewBox="0 0 500.000000 500.000000"
 preserveAspectRatio="xMidYMid meet">

<g transform="translate(0.000000,500.000000) scale(0.100000,-0.100000)"
fill="#000000" stroke="none">
<path d="M1735 4567 c-95 -32 -156 -87 -198 -180 -13 -29 -30 -50 -42 -52 -22
-5 -452 -65 -645 -90 -69 -9 -148 -23 -175 -30 -63 -18 -105 -59 -112 -111 -4
-31 63 -550 83 -641 l4 -23 1870 0 1869 0 108 158 c139 202 172 265 173 320 0
51 -19 99 -51 128 -41 37 -678 465 -714 480 -71 29 -156 7 -206 -54 -13 -16
-132 -189 -263 -385 -132 -196 -241 -355 -243 -353 -2 2 -26 162 -53 356 -54
383 -58 399 -123 433 l-38 19 -441 -62 c-420 -59 -442 -61 -451 -43 -17 31
-84 88 -131 112 -57 28 -164 37 -221 18z"/>
<path d="M2388 1813 c46 -47 264 -381 256 -394 -2 -3 -39 -28 -83 -55 -44 -26
-79 -50 -77 -52 7 -7 462 -30 468 -23 10 9 198 410 198 422 0 5 -34 -12 -76
-36 -42 -25 -79 -45 -82 -45 -4 1 -36 44 -72 98 -90 135 -82 132 -357 132
l-222 0 47 -47z"/>
<path d="M1833 1227 c-122 -11 -220 -24 -217 -28 2 -4 38 -26 79 -49 l74 -41
-55 -112 c-44 -89 -55 -119 -51 -147 3 -21 50 -113 118 -227 l114 -193 7 45
c6 40 182 401 210 430 6 7 37 -5 89 -33 44 -24 83 -42 85 -39 3 3 -41 97 -98
211 -69 138 -108 206 -118 205 -8 -1 -115 -11 -237 -22z"/>
<path d="M2692 707 l-133 -198 138 -197 138 -197 5 95 5 95 40 2 c191 12 206
14 236 41 24 22 242 392 235 399 -1 1 -21 -4 -43 -12 -23 -8 -92 -17 -153 -20
-60 -3 -159 -7 -220 -10 l-109 -5 -3 102 -3 103 -133 -198z"/>
</g>
</svg>
